<svg xmlns="http://www.w3.org/2000/svg" fill="none" viewBox="0 0 826 118"><path fill="#9F9" d="M793.87 65.19c7.29 7.29 19.11 7.29 26.41 0l-37.75 37.75-26.4-26.4 24.55-24.55 13.2 13.2h-.01Z"/><path fill="#9FF" d="m793.87 38.79-13.2 13.2-24.55-24.55 26.41-26.4 37.75 37.75c-7.29-7.29-19.11-7.29-26.41 0Z"/><path fill="#49F2D2" d="m793.87 65.19-13.2-13.2 13.2-13.2c7.29-7.29 19.11-7.29 26.41 0 7.29 7.29 7.29 19.11 0 26.41-7.29 7.29-19.11 7.29-26.41 0v-.01Z"/><path fill="#9F9" d="M32.75 38.79c-7.29-7.29-19.11-7.29-26.41 0L44.1 1.04l26.4 26.4-24.55 24.55-13.2-13.2Z"/><path fill="#9FF" d="m32.75 65.19 13.2-13.2L70.5 76.54l-26.4 26.41L6.35 65.19c7.29 7.29 19.11 7.29 26.41 0h-.01Z"/><path fill="#49F2D2" d="m32.75 38.79 13.2 13.2-13.2 13.2c-7.29 7.29-19.11 7.29-26.41 0-7.29-7.29-7.29-19.11 0-26.41 7.29-7.29 19.11-7.29 26.41 0v.01Z"/><path fill="#C9F" d="M122.49 104.36c0 2.36-.66 4.66-1.91 6.64a12.041 12.041 0 0 1-4.94 4.45c-1.3.64-2.43 1.19-6.1 1.19h-7.33a.3.3 0 0 1-.3-.3V92.4c0-.17.14-.31.31-.31h7.14c3.18 0 4.69.47 5.86.99 4.42 1.95 7.27 6.38 7.27 11.29v-.01Zm-6.17-.02c-.04-6.38-6.62-6.63-8.13-6.6-.17 0-.31.14-.31.31v12.55c0 .18.14.32.32.32h.33c2.61 0 4.94-.73 6.09-1.91 1.11-1.14 1.7-2.75 1.7-4.67ZM152.98 111.3l-.5 5.03c-.02.16-.15.28-.31.28h-13.34c-.19 0-.34-.15-.34-.34V92.4c0-.17.14-.31.31-.31h13.37c.16 0 .29.12.31.28l.5 5.02c.02.19-.13.35-.32.35h-7.62c-.17 0-.31.14-.31.31v2.99c0 .17.14.31.31.31h5.54c.17 0 .3.14.3.3v5.02c0 .17-.14.31-.31.31h-5.54a.3.3 0 0 0-.3.3v3.39c0 .17.14.31.31.31h7.63c.18 0 .32.16.3.34v-.02h.01ZM185.82 109.65c0 1.07-.18 3.13-1.35 4.85-1.38 2.02-3.75 3.04-7.03 3.04-2.73 0-4.86-.71-6.36-2.1-.65-.63-1.61-1.84-2.09-3.8-.04-.16.06-.33.23-.36l5.59-1.16c.15-.03.3.06.35.21.5 1.74 1.91 1.83 2.21 1.83 1.38 0 2.23-1.16 2.23-2.24 0-1.19-.92-1.58-4.33-3.05l-.28-.12c-1.6-.66-5.87-2.43-5.87-7.06 0-4.93 4.33-7.59 8.41-7.59.77 0 2.21.1 3.68.71 1.04.45 3.25 1.69 3.69 4.29.03.15-.07.3-.22.34l-5.19 1.3a.286.286 0 0 1-.34-.16c-.25-.59-.74-1.1-1.81-1.1-.99 0-2.01.68-2.01 1.81 0 1.06.65 1.35 4.86 3.3 4.04 1.86 5.61 3.84 5.61 7.06h.02ZM208.07 92.4v23.91c0 .17-.14.31-.31.31h-5.63c-.17 0-.31-.14-.31-.31V92.4c0-.17.14-.31.31-.31h5.63c.17 0 .31.14.31.31ZM249.27 104.99c0 1.27-.18 2.53-.54 3.74-.41 1.4-1.05 2.71-1.9 3.89-1.15 1.6-2.66 2.92-4.38 3.83-1.8.95-3.74 1.44-5.78 1.44-6.95 0-12.6-5.79-12.6-12.9s5.65-12.9 12.6-12.9c2.04 0 3.98.48 5.78 1.44 1.5.8 2.85 1.91 3.94 3.26.15.18.12.45-.07.6l-4.04 3.02c-.13.1-.31.08-.41-.04a6.852 6.852 0 0 0-5.19-2.41c-3.8 0-6.89 3.16-6.89 7.04s3.09 7.05 6.89 7.05c2.18 0 4.18-1.02 5.5-2.8.15-.2 0-.47-.24-.47h-5.88c-.17 0-.31-.14-.31-.31v-4.71c.01-.17.15-.31.32-.31h12.83c.16 0 .3.12.31.28.03.33.08.89.08 1.27h-.02v-.01ZM285.53 92.4v23.93a.3.3 0 0 1-.3.3h-4.96c-.1 0-.19-.05-.24-.12l-8.32-11.65c-.17-.24-.54-.11-.54.18l.11 11.3c0 .17-.13.3-.3.3h-5.39a.3.3 0 0 1-.3-.3V92.41c0-.16.13-.3.3-.3h4.92c.1 0 .19.05.25.13l8.35 12.55c.16.25.55.13.54-.17l-.11-12.22c0-.16.13-.3.3-.3h5.39c.16 0 .3.13.3.3Z"/><path fill="#2B143F" d="M320.2 117.67c-1.59 0-2.99-.32-4.22-.95-1.23-.63-2.19-1.49-2.89-2.59-.7-1.1-1.05-2.35-1.05-3.76 0-.95.2-1.84.6-2.7.4-.85.99-1.63 1.75-2.34s1.69-1.31 2.77-1.81c-.58-.62-1.05-1.2-1.41-1.75a6.07 6.07 0 0 1-.77-1.64c-.16-.54-.24-1.11-.24-1.71 0-1.18.32-2.24.95-3.19.64-.95 1.49-1.71 2.57-2.28 1.08-.57 2.29-.85 3.63-.85 1.34 0 2.53.25 3.6.75 1.07.5 1.91 1.2 2.54 2.09.62.89.94 1.93.94 3.11s-.39 2.34-1.18 3.34c-.79 1-1.98 1.94-3.58 2.82l3.76 3.9c.64-.79 1.21-1.66 1.72-2.6.5-.94.98-2.09 1.44-3.44l4.48 1.72c-.3.83-.7 1.71-1.19 2.64-.49.93-1.04 1.84-1.64 2.71-.6.88-1.2 1.65-1.81 2.31l5.2 5.67h-6.41l-2.19-2.31c-1.03.89-2.2 1.58-3.52 2.08-1.32.5-2.61.75-3.87.75l.02.03Zm.46-4.62c.69 0 1.37-.14 2.05-.42.68-.28 1.3-.67 1.86-1.17l-4.52-4.74c-.89.36-1.58.85-2.07 1.46-.49.61-.74 1.28-.74 1.99 0 .86.32 1.56.95 2.09.63.53 1.45.8 2.47.8v-.01Zm.81-11.54c.95-.36 1.66-.8 2.14-1.32.48-.52.72-1.09.72-1.71 0-.68-.22-1.22-.66-1.63-.44-.41-1.01-.61-1.72-.61s-1.26.2-1.72.6c-.46.4-.68.93-.68 1.58 0 .48.16.97.47 1.47.32.5.8 1.04 1.45 1.61v.01Z"/><path fill="#C9F" d="M382.62 104.36c0 2.36-.66 4.66-1.91 6.64a12.041 12.041 0 0 1-4.94 4.45c-1.3.64-2.43 1.19-6.1 1.19h-7.33a.3.3 0 0 1-.3-.3V92.4c0-.17.14-.31.31-.31h7.14c3.18 0 4.69.47 5.86.99 4.42 1.95 7.27 6.38 7.27 11.29v-.01Zm-6.17-.02c-.04-6.38-6.62-6.63-8.13-6.6-.17 0-.31.14-.31.31v12.55c0 .18.14.32.32.32h.33c2.61 0 4.94-.73 6.09-1.91 1.11-1.14 1.7-2.75 1.7-4.67ZM413.11 111.3l-.5 5.03c-.02.16-.15.28-.31.28h-13.34c-.19 0-.34-.15-.34-.34V92.4c0-.17.14-.31.31-.31h13.37c.16 0 .29.12.31.28l.5 5.02c.02.19-.13.35-.32.35h-7.62c-.17 0-.31.14-.31.31v2.99c0 .17.14.31.31.31h5.54c.17 0 .3.14.3.3v5.02c0 .17-.14.31-.31.31h-5.54a.3.3 0 0 0-.3.3v3.39c0 .17.14.31.31.31h7.63c.18 0 .32.16.3.34v-.02h.01ZM451.69 92.48l-8.1 24.01c-.04.12-.15.2-.28.2h-5.8c-.13 0-.24-.08-.28-.2l-8.1-24.01c-.07-.19.08-.39.28-.39h6.77a.3.3 0 0 1 .29.22l3.66 14.05c.08.3.5.3.57 0l3.66-14.05c.03-.13.15-.22.29-.22h6.77c.2 0 .35.2.28.39h-.01ZM482.21 111.3l-.5 5.03c-.02.16-.15.28-.31.28h-13.34c-.19 0-.34-.15-.34-.34V92.4c0-.17.14-.31.31-.31h13.37c.16 0 .29.12.31.28l.5 5.02c.02.19-.13.35-.32.35h-7.62c-.17 0-.31.14-.31.31v2.99c0 .17.14.31.31.31h5.54c.17 0 .3.14.3.3v5.02c0 .17-.14.31-.31.31h-5.54a.3.3 0 0 0-.3.3v3.39c0 .17.14.31.31.31h7.63c.18 0 .32.16.3.34v-.02h.01ZM512.64 111.33l-.53 5.06c-.02.15-.14.27-.29.27h-13.31a.3.3 0 0 1-.3-.3V92.4c0-.16.13-.3.3-.3h5.65c.16 0 .3.13.3.3v18.3c0 .16.13.3.3.3h7.6c.18 0 .31.15.29.33h-.01ZM553.86 104.99c0 7.11-5.65 12.9-12.6 12.9-6.95 0-12.6-5.79-12.6-12.9s5.65-12.9 12.6-12.9c6.95 0 12.6 5.79 12.6 12.9Zm-5.71 0c0-3.88-3.09-7.05-6.89-7.05s-6.89 3.16-6.89 7.05c0 3.89 3.09 7.05 6.89 7.05s6.89-3.16 6.89-7.05ZM587.95 100.4c0 2.54-1.02 5.13-2.54 6.45-1.6 1.38-3.19 2.13-7 2.13h-2a.3.3 0 0 0-.3.3v7.04a.3.3 0 0 1-.3.3h-5.65a.3.3 0 0 1-.3-.3V92.39c0-.16.13-.3.3-.3h7.57c4.37 0 6.07.69 7.38 1.79 1.8 1.52 2.83 3.9 2.83 6.52h.01Zm-5.99.1c0-1.2-.48-1.99-1.46-2.41-.82-.35-1.82-.35-2.48-.35h-1.61a.3.3 0 0 0-.3.3v5.01c0 .16.13.3.3.3h1.84c.57 0 1.53 0 2.31-.35 1.15-.52 1.39-1.63 1.39-2.48v-.02h.01ZM631.49 116.65h-5.44c-.15 0-.28-.12-.29-.27l-1.15-12.43c-.03-.32-.48-.37-.58-.06l-4.02 12.56a.3.3 0 0 1-.28.21h-3.72c-.13 0-.24-.08-.28-.21l-4.02-12.56c-.1-.31-.55-.26-.58.06l-1.15 12.43c-.01.15-.14.27-.3.27h-5.44c-.18 0-.32-.16-.29-.33l3.07-23.96a.3.3 0 0 1 .29-.26h6.29c.13 0 .25.08.28.21l3.74 12.15c.09.28.48.28.57 0l3.61-12.15c.04-.13.15-.21.28-.21h6.33c.15 0 .27.11.29.26l3.07 23.96c.02.18-.12.33-.29.33h.01ZM662.26 111.3l-.5 5.03c-.02.16-.15.28-.31.28h-13.34c-.19 0-.34-.15-.34-.34V92.4c0-.17.14-.31.31-.31h13.37c.16 0 .29.12.31.28l.5 5.02c.02.19-.13.35-.32.35h-7.62c-.17 0-.31.14-.31.31v2.99c0 .17.14.31.31.31h5.54c.17 0 .3.14.3.3v5.02c0 .17-.14.31-.31.31h-5.54a.3.3 0 0 0-.3.3v3.39c0 .17.14.31.31.31h7.63c.18 0 .32.16.3.34v-.02h.01ZM698.5 92.4v23.93a.3.3 0 0 1-.3.3h-4.96c-.1 0-.19-.05-.24-.12l-8.32-11.65c-.17-.24-.54-.11-.54.18l.11 11.3c0 .17-.13.3-.3.3h-5.39a.3.3 0 0 1-.3-.3V92.41c0-.16.13-.3.3-.3h4.92c.1 0 .19.05.25.13l8.35 12.55c.16.25.55.13.54-.17l-.11-12.22c0-.16.13-.3.3-.3h5.39c.16 0 .3.13.3.3ZM730.71 92.4v5.06a.3.3 0 0 1-.3.3h-4.36a.3.3 0 0 0-.3.3v18.3a.3.3 0 0 1-.3.3h-5.65a.3.3 0 0 1-.3-.3v-18.3a.3.3 0 0 0-.3-.3h-4.4a.3.3 0 0 1-.3-.3V92.4c0-.16.13-.3.3-.3h15.6c.16 0 .3.13.3.3h.01Z"/><path fill="#2B143F" d="M104.08 1.29h16.56c.92 0 1.67.75 1.67 1.67V73.3c0 .92-.75 1.67-1.67 1.67h-16.56c-.92 0-1.67-.75-1.67-1.67V2.96c0-.92.75-1.67 1.67-1.67ZM190.56 1.25H174.7c-.44 0-.85.17-1.16.49-.31.31-.48.73-.47 1.17l.34 35.95s0 .08-.08.1c-.08.02-.1-.02-.12-.04L148.64 1.99c-.3-.46-.81-.73-1.36-.73h-14.47c-.9 0-1.64.73-1.64 1.63V73.3c0 .9.73 1.64 1.64 1.64h15.86a1.626 1.626 0 0 0 1.63-1.65l-.34-33.26s0-.08.07-.1c.08-.03.11.02.12.04l24.48 34.29c.31.43.8.69 1.33.69h14.6c.9 0 1.63-.73 1.63-1.64V2.88c0-.9-.73-1.63-1.63-1.63ZM241.24 4.32c-3.5-1.54-8.05-2.97-17.54-2.97h-21.01c-.92 0-1.67.75-1.67 1.67v70.45c0 .91.74 1.66 1.66 1.66h21.56c11 0 14.38-1.65 18.29-3.57a36.52 36.52 0 0 0 14.84-13.38c3.74-5.94 5.72-12.84 5.72-19.93 0-14.75-8.58-28.07-21.86-33.91v-.02h.01Zm2.17 33.87c0 5.44-1.65 10-4.78 13.2-3.24 3.32-9.9 5.38-17.37 5.38h-.97c-.1 0-.17-.08-.17-.17V19.68c0-.08.06-.15.15-.15h.53c3.32 0 12.18.55 17.75 5.98 3.19 3.11 4.83 7.38 4.86 12.68ZM271.22 1.29h16.56c.92 0 1.67.75 1.67 1.67V73.3c0 .92-.75 1.67-1.67 1.67h-16.56c-.92 0-1.67-.75-1.67-1.67V2.96c0-.92.75-1.67 1.67-1.67ZM340.17 2.51c-.26-.68-.92-1.14-1.65-1.14h-15.63c-.78 0-1.5.49-1.77 1.23L294.6 72.98c-.19.51-.12 1.08.19 1.53.31.45.82.71 1.36.71h17.98c.71 0 1.35-.46 1.57-1.14l3.81-11.54c.02-.06.07-.1.13-.1h22.06c.06 0 .11.04.12.09l3.76 11.41c.25.76.96 1.27 1.76 1.27h17.83c.54 0 1.05-.27 1.36-.71.31-.45.38-1.02.19-1.53L340.17 2.51Zm-3.84 43.58s-.06.06-.12.06h-11.15s-.08-.02-.1-.05a.139.139 0 0 1-.02-.11l5.56-16.86s.03-.11.15-.11.14.08.14.1l5.55 16.84c.02.06 0 .1-.02.13h.01ZM428.73 48.11c1.22-.73 2.4-1.61 3.74-2.76 4.47-3.89 7.47-11.52 7.47-18.99 0-7.47-3.03-14.7-8.33-19.18-3.86-3.26-8.84-5.28-21.71-5.28h-22.26a.87.87 0 0 0-.87.87v70.41c0 .48.39.87.87.87h16.62c.48 0 .87-.39.87-.87V52.47c0-.48.39-.87.87-.87h2.89c.35 0 .66.2.8.52l9.44 21.63c.14.32.45.52.8.52h18.05a.87.87 0 0 0 .8-1.22l-10.4-23.84c-.18-.4-.03-.87.35-1.1Zm-10.5-14.16C415.91 35 413.1 35 411.42 35h-5.41a.87.87 0 0 1-.87-.87V19.39c0-.48.39-.87.87-.87h4.74c1.94 0 4.87 0 7.29 1.05 2.88 1.25 4.29 3.57 4.29 7.1 0 2.49-.71 5.77-4.1 7.3v-.02ZM480.41.1c-20.44 0-37.07 17.02-37.07 37.94 0 20.92 16.63 37.94 37.07 37.94s37.07-17.02 37.07-37.94C517.48 17.12 500.85.1 480.41.1Zm0 58.67c-11.18 0-20.28-9.3-20.28-20.73s9.1-20.73 20.28-20.73c11.18 0 20.28 9.3 20.28 20.73s-9.1 20.73-20.28 20.73ZM562.04 5.02c-3.43-1.51-7.89-2.91-17.24-2.91h-21.01c-.5 0-.91.41-.91.91v70.45c0 .49.4.89.89.89h21.56c10.82 0 14.13-1.62 17.96-3.49 5.94-2.9 10.96-7.44 14.53-13.1 3.67-5.82 5.6-12.57 5.6-19.53 0-14.45-8.4-27.49-21.4-33.22h.02Zm-1.75 46.91c-3.38 3.46-10.24 5.61-17.91 5.61h-.97c-.52 0-.94-.42-.94-.94V19.68c0-.5.4-.91.9-.91 4.43-.08 23.78.63 23.91 19.41 0 5.64-1.73 10.39-4.99 13.74v.01ZM630.57 57.76h-22.45c-.5 0-.9-.4-.9-.91v-9.97c0-.49.4-.89.89-.89h16.3c.5 0 .91-.41.91-.91V30.32c0-.49-.4-.89-.89-.89h-16.31c-.5 0-.9-.4-.9-.9v-8.8c0-.5.4-.9.9-.9h22.41c.56 0 .99-.48.94-1.03l-1.46-14.76a.917.917 0 0 0-.9-.82h-39.35c-.5 0-.91.41-.91.91v70.24c0 .55.45 1 1 1h39.26c.46 0 .85-.35.9-.81l1.46-14.81a.901.901 0 0 0-.9-.99ZM638.28 2.05h16.56c.5 0 .91.41.91.91V73.3c0 .5-.4.9-.9.9h-16.56c-.5 0-.91-.41-.91-.91V2.96c0-.5.41-.9.9-.9v-.01ZM730.5 73.24 703.95 2.78c-.15-.39-.52-.65-.94-.65h-15.63c-.47 0-.89.29-1.06.73L659.8 73.24c-.22.59.21 1.21.84 1.21h17.98c.38 0 .72-.25.84-.61l3.81-11.54c.12-.37.47-.62.86-.62h22.06c.39 0 .73.25.85.61l3.76 11.41c.15.45.57.75 1.04.75h17.83c.62 0 1.06-.62.84-1.21h-.01Zm-29.79-26.33h-11.15c-.6 0-1.03-.59-.84-1.16l5.56-16.87c.28-.84 1.46-.84 1.74 0l5.55 16.84a.905.905 0 0 1-.86 1.19Z"/></svg>