<svg xmlns="http://www.w3.org/2000/svg" fill="none" viewBox="0 0 824 154"><path fill="#9F9" d="M119.07 77.84c8.79 8.79 23.03 8.79 31.83 0l-45.5 45.5-31.82-31.82 29.59-29.59 15.91 15.91h-.01Z"/><path fill="#9FF" d="m119.07 46.02-15.91 15.91-29.59-29.59L105.4.52l45.5 45.5c-8.79-8.79-23.03-8.79-31.83 0Z"/><path fill="#49F2D2" d="m119.07 77.84-15.91-15.91 15.91-15.91c8.79-8.79 23.03-8.79 31.83 0 8.79 8.79 8.79 23.03 0 31.83-8.79 8.79-23.03 8.79-31.83 0v-.01Z"/><path fill="#9F9" d="M39.17 76.15c-8.79-8.79-23.03-8.79-31.83 0l45.51-45.5 31.82 31.82-29.59 29.59-15.91-15.91Z"/><path fill="#9FF" d="m39.17 107.97 15.91-15.91 29.59 29.59-31.82 31.83-45.5-45.51c8.79 8.79 23.03 8.79 31.83 0h-.01Z"/><path fill="#49F2D2" d="m39.17 76.15 15.91 15.91-15.91 15.91c-8.79 8.79-23.03 8.79-31.83 0-8.79-8.79-8.79-23.03 0-31.83 8.79-8.79 23.03-8.79 31.83 0v.01Z"/><path fill="#2B143F" d="M197.39 40.25h16.56c.92 0 1.67.75 1.67 1.67v70.34c0 .92-.75 1.67-1.67 1.67h-16.56c-.92 0-1.67-.75-1.67-1.67V41.92c0-.92.75-1.67 1.67-1.67ZM283.87 40.21h-15.86c-.44 0-.85.17-1.16.49-.31.31-.48.73-.47 1.17l.34 35.95s0 .08-.08.1c-.08.02-.1-.02-.12-.04l-24.57-36.93c-.3-.46-.81-.73-1.36-.73h-14.47c-.9 0-1.64.73-1.64 1.63v70.41c0 .9.73 1.64 1.64 1.64h15.86a1.626 1.626 0 0 0 1.63-1.65l-.34-33.26s0-.08.07-.1c.08-.03.11.02.12.04l24.48 34.29c.31.43.8.69 1.33.69h14.6c.9 0 1.63-.73 1.63-1.64V41.84c0-.9-.73-1.63-1.63-1.63ZM334.55 43.28c-3.5-1.54-8.05-2.97-17.54-2.97H296c-.92 0-1.67.75-1.67 1.67v70.45c0 .91.74 1.66 1.66 1.66h21.56c11 0 14.38-1.65 18.29-3.57a36.52 36.52 0 0 0 14.84-13.38c3.74-5.94 5.72-12.84 5.72-19.93 0-14.75-8.58-28.07-21.86-33.91v-.02h.01Zm2.17 33.87c0 5.44-1.65 10-4.78 13.2-3.24 3.32-9.9 5.38-17.37 5.38h-.97c-.1 0-.17-.08-.17-.17V58.64c0-.08.06-.15.15-.15h.53c3.32 0 12.18.55 17.75 5.98 3.19 3.11 4.83 7.38 4.86 12.68ZM364.53 40.25h16.56c.92 0 1.67.75 1.67 1.67v70.34c0 .92-.75 1.67-1.67 1.67h-16.56c-.92 0-1.67-.75-1.67-1.67V41.92c0-.92.75-1.67 1.67-1.67ZM433.48 41.47c-.26-.68-.92-1.14-1.65-1.14H416.2c-.78 0-1.5.49-1.77 1.23l-26.52 70.38c-.19.51-.12 1.08.19 1.53.31.45.82.71 1.36.71h17.98c.71 0 1.35-.46 1.57-1.14l3.81-11.54c.02-.06.07-.1.13-.1h22.06c.06 0 .11.04.12.09l3.76 11.41c.25.76.96 1.27 1.76 1.27h17.83c.54 0 1.05-.27 1.36-.71.31-.45.38-1.02.19-1.53l-26.55-70.46Zm-3.84 43.58s-.06.06-.12.06h-11.15s-.08-.02-.1-.05a.139.139 0 0 1-.02-.11l5.56-16.86s.03-.11.15-.11.14.08.14.1l5.55 16.84c.02.06 0 .1-.02.13h.01ZM522.04 87.07c1.22-.73 2.4-1.61 3.74-2.76 4.47-3.89 7.47-11.52 7.47-18.99 0-7.47-3.03-14.7-8.33-19.18-3.86-3.26-8.84-5.28-21.71-5.28h-22.26a.87.87 0 0 0-.87.87v70.41c0 .48.39.87.87.87h16.62c.48 0 .87-.39.87-.87V91.43c0-.48.39-.87.87-.87h2.89c.35 0 .66.2.8.52l9.44 21.63c.14.32.45.52.8.52h18.05a.87.87 0 0 0 .8-1.22l-10.4-23.84c-.18-.4-.03-.87.35-1.1Zm-10.5-14.16c-2.32 1.05-5.13 1.05-6.81 1.05h-5.41a.87.87 0 0 1-.87-.87V58.35c0-.48.39-.87.87-.87h4.74c1.94 0 4.87 0 7.29 1.05 2.88 1.25 4.29 3.57 4.29 7.1 0 2.49-.71 5.77-4.1 7.3v-.02ZM573.72 39.06c-20.44 0-37.07 17.02-37.07 37.94 0 20.92 16.63 37.94 37.07 37.94S610.79 97.92 610.79 77c0-20.92-16.63-37.94-37.07-37.94Zm0 58.67c-11.18 0-20.28-9.3-20.28-20.73s9.1-20.73 20.28-20.73C584.9 56.27 594 65.57 594 77s-9.1 20.73-20.28 20.73ZM655.35 43.98c-3.43-1.51-7.89-2.91-17.24-2.91H617.1c-.5 0-.91.41-.91.91v70.45c0 .49.4.89.89.89h21.56c10.82 0 14.13-1.62 17.96-3.49 5.94-2.9 10.96-7.44 14.53-13.1 3.67-5.82 5.6-12.57 5.6-19.53 0-14.45-8.4-27.49-21.4-33.22h.02Zm-1.75 46.91c-3.38 3.46-10.24 5.61-17.91 5.61h-.97c-.52 0-.94-.42-.94-.94V58.64c0-.5.4-.91.9-.91 4.43-.08 23.78.63 23.91 19.41 0 5.64-1.73 10.39-4.99 13.74v.01ZM723.88 96.71h-22.45c-.5 0-.9-.4-.9-.91v-9.97c0-.49.4-.89.89-.89h16.3c.5 0 .91-.41.91-.91V69.27c0-.49-.4-.89-.89-.89h-16.31c-.5 0-.9-.4-.9-.9v-8.8c0-.5.4-.9.9-.9h22.41c.56 0 .99-.48.94-1.03l-1.46-14.76a.917.917 0 0 0-.9-.82h-39.35c-.5 0-.91.41-.91.91v70.24c0 .55.45 1 1 1h39.26c.46 0 .85-.35.9-.81l1.46-14.81a.901.901 0 0 0-.9-.99ZM731.59 41.01h16.56c.5 0 .91.41.91.91v70.34c0 .5-.4.9-.9.9H731.6c-.5 0-.91-.41-.91-.91V41.92c0-.5.41-.9.9-.9v-.01ZM823.81 112.2l-26.55-70.46c-.15-.39-.52-.65-.94-.65h-15.63c-.47 0-.89.29-1.06.73l-26.52 70.38c-.22.59.21 1.21.84 1.21h17.98c.38 0 .72-.25.84-.61l3.81-11.54c.12-.37.47-.62.86-.62h22.06c.39 0 .73.25.85.61l3.76 11.41c.15.45.57.75 1.04.75h17.83c.62 0 1.06-.62.84-1.21h-.01Zm-29.79-26.33h-11.15c-.6 0-1.03-.59-.84-1.16l5.56-16.87c.28-.84 1.46-.84 1.74 0l5.55 16.84a.905.905 0 0 1-.86 1.19Z"/></svg>