<svg xmlns="http://www.w3.org/2000/svg" fill="none" viewBox="0 0 839 312"><path fill="#9F9" d="M775.62 170.2c14.41 14.41 37.79 14.41 52.2 0l-74.62 74.62-52.2-52.2 48.52-48.52 26.1 26.1Z"/><path fill="#9FF" d="m775.62 118-26.1 26.1L701 95.58l52.2-52.2L827.82 118c-14.41-14.41-37.79-14.41-52.2 0Z"/><path fill="#49F2D2" d="m775.62 170.2-26.1-26.1 26.1-26.1c14.41-14.41 37.79-14.41 52.2 0 14.41 14.41 14.41 37.79 0 52.2-14.41 14.41-37.79 14.41-52.2 0Z"/><path fill="#9F9" d="M63.01 118c-14.41-14.41-37.79-14.41-52.2 0l74.63-74.62 52.2 52.2-48.52 48.52-26.1-26.1h-.01Z"/><path fill="#9FF" d="m63.01 170.2 26.1-26.1 48.52 48.52-52.2 52.2-74.62-74.62c14.41 14.41 37.79 14.41 52.2 0Z"/><path fill="#49F2D2" d="m63.01 118 26.1 26.1-26.1 26.1c-14.41 14.41-37.79 14.41-52.2 0-14.41-14.41-14.41-37.79 0-52.2 14.41-14.41 37.79-14.41 52.2 0Z"/><path fill="#2B143F" d="M220.88 1.84v136.67c0 .97-.79 1.76-1.76 1.76h-32.18c-.97 0-1.76-.79-1.76-1.76V1.84c0-.97.79-1.76 1.76-1.76h32.18c.97 0 1.76.79 1.76 1.76ZM349.46 1.69v136.8c0 .94-.76 1.7-1.69 1.7H319.4c-.55 0-1.06-.27-1.38-.71l-47.56-66.62c-.96-1.35-3.09-.66-3.07 1l.65 64.62c0 .95-.75 1.71-1.7 1.71h-30.82c-.94 0-1.7-.76-1.7-1.7V1.69c0-.93.76-1.69 1.7-1.69h28.12c.57 0 1.09.28 1.41.76l47.75 71.75c.93 1.4 3.12.73 3.1-.95l-.65-69.85c0-.94.75-1.71 1.69-1.71h30.82c.93 0 1.69.76 1.69 1.69h.01ZM480.02 70.38c0 13.51-3.77 26.63-10.89 37.94-6.93 11.01-16.7 19.81-28.23 25.46-7.44 3.64-13.87 6.79-34.89 6.79h-41.9c-.96 0-1.73-.78-1.73-1.73V1.95c0-.97.79-1.76 1.76-1.76h40.82c18.16 0 26.82 2.71 33.49 5.65 25.26 11.13 41.59 36.46 41.59 64.54h-.02Zm-35.29-.09c-.25-36.49-37.85-37.88-46.46-37.72-.97.02-1.74.81-1.74 1.78v71.73c0 1 .81 1.82 1.82 1.82h1.88c14.9 0 28.23-4.18 34.8-10.91 6.35-6.5 9.7-15.73 9.7-26.7ZM523.99 1.84v136.67c0 .97-.79 1.76-1.76 1.76h-32.17c-.97 0-1.76-.79-1.76-1.76V1.84c0-.97.79-1.76 1.76-1.76h32.17c.97 0 1.76.79 1.76 1.76ZM665.4 140.74h-34.65c-.92 0-1.73-.59-2.02-1.46l-7.31-22.16c-.23-.71-.9-1.19-1.65-1.19H576.9c-.76 0-1.43.49-1.67 1.21l-7.39 22.42c-.23.71-.9 1.19-1.64 1.19h-34.93a1.74 1.74 0 0 1-1.63-2.35L581.18 1.65c.32-.86 1.14-1.43 2.06-1.43h30.37c.81 0 1.54.5 1.82 1.26l51.59 136.9c.43 1.13-.41 2.35-1.63 2.35h.01v.01Zm-54.59-55.82-10.79-32.71c-.54-1.63-2.84-1.63-3.38 0l-10.81 32.77c-.37 1.12.46 2.26 1.64 2.26h21.66c1.2 0 2.05-1.18 1.67-2.32h.01ZM256.28 254.35c.34.79-.23 1.67-1.09 1.67h-24.68c-.47 0-.9-.28-1.09-.72l-12.9-29.57c-.19-.43-.62-.71-1.09-.71h-3.95c-.66 0-1.19.53-1.19 1.19v28.31c0 .66-.53 1.19-1.19 1.19h-22.73c-.66 0-1.19-.53-1.19-1.19v-96.26c0-.66.53-1.19 1.19-1.19h30.44c17.6 0 24.41 2.76 29.69 7.22 7.23 6.13 11.38 15.69 11.38 26.23 0 10.54-4.1 20.64-10.21 25.96-1.83 1.58-3.46 2.78-5.12 3.78-.51.31-.72.95-.48 1.5l14.23 32.6h-.02v-.01Zm-22.5-63.44c0-4.82-1.92-8-5.86-9.71-3.3-1.43-7.31-1.43-9.97-1.43h-6.49c-.66 0-1.19.53-1.19 1.19v20.16c0 .66.53 1.19 1.19 1.19h7.39c2.3 0 6.14 0 9.31-1.43 4.63-2.09 5.61-6.58 5.61-9.98l.01.01ZM366.26 206.48c0 28.61-22.73 51.88-50.68 51.88s-50.68-23.27-50.68-51.88c0-28.61 22.73-51.88 50.68-51.88s50.68 23.27 50.68 51.88Zm-22.95 0c0-15.63-12.44-28.34-27.72-28.34s-27.72 12.71-27.72 28.34c0 15.63 12.44 28.34 27.72 28.34s27.72-12.71 27.72-28.34ZM458.85 206.75c0 9.5-2.65 18.73-7.66 26.69-4.88 7.75-11.75 13.94-19.87 17.91-5.24 2.56-9.76 4.77-24.55 4.77h-29.48c-.67 0-1.22-.55-1.22-1.22v-96.31c0-.68.55-1.24 1.24-1.24h28.72c12.78 0 18.88 1.91 23.56 3.98 17.78 7.83 29.26 25.66 29.26 45.41v.01Zm-24.83-.06c-.18-25.68-26.63-26.66-32.69-26.54-.68.01-1.23.57-1.23 1.25v50.48c0 .71.57 1.28 1.28 1.28h1.33c10.48 0 19.87-2.94 24.49-7.68 4.47-4.57 6.83-11.07 6.83-18.78h-.01v-.01ZM526.89 234.79l-2 20.24a1.23 1.23 0 0 1-1.23 1.11h-53.67c-.76 0-1.37-.62-1.37-1.37v-96.03c0-.68.56-1.24 1.24-1.24h53.8c.64 0 1.17.48 1.23 1.12l1.99 20.18c.07.76-.52 1.41-1.28 1.41h-30.64c-.68 0-1.23.55-1.23 1.23v12.03c0 .68.55 1.24 1.23 1.24h22.3c.67 0 1.22.55 1.22 1.22v20.19c0 .69-.56 1.25-1.25 1.25h-22.29c-.67 0-1.22.55-1.22 1.22v13.63c0 .68.55 1.24 1.24 1.24h30.69c.73 0 1.3.63 1.22 1.35l.02-.02ZM562.49 158.52v96.17c0 .68-.56 1.24-1.24 1.24h-22.64c-.68 0-1.24-.55-1.24-1.24v-96.17c0-.68.55-1.24 1.24-1.24h22.64c.68 0 1.24.55 1.24 1.24ZM665.93 256.25h-24.38c-.65 0-1.22-.41-1.42-1.02l-5.14-15.6c-.16-.5-.63-.84-1.16-.84h-30.16c-.53 0-1.01.34-1.18.85l-5.2 15.78c-.16.5-.63.83-1.15.83h-24.58c-.86 0-1.45-.85-1.14-1.65l36.26-96.22c.23-.6.8-1 1.45-1h21.37c.57 0 1.08.35 1.28.89l36.3 96.33c.3.8-.29 1.65-1.14 1.65h-.01Zm-38.41-39.28-7.59-23.02c-.38-1.15-2-1.15-2.38 0l-7.6 23.06c-.26.79.33 1.59 1.15 1.59h15.24c.85 0 1.44-.83 1.18-1.63Z"/><path fill="#C9F" d="M208.42 297.51c0 2.59-.74 5.12-2.13 7.3a13.507 13.507 0 0 1-5.51 4.9c-1.45.7-2.71 1.3-6.82 1.3h-8.18c-.19 0-.34-.15-.34-.33v-26.33c0-.18.16-.34.35-.34h7.98c3.55 0 5.24.52 6.55 1.09 4.93 2.14 8.13 7.01 8.13 12.41h-.03Zm-6.89-.02c-.05-7.02-7.39-7.29-9.08-7.26-.19 0-.34.16-.34.34v13.8c0 .19.16.35.35.35h.37c2.9 0 5.51-.81 6.8-2.1 1.24-1.25 1.9-3.02 1.9-5.13ZM229.44 305.15l-.55 5.54c-.02.17-.16.3-.34.3h-14.73a.38.38 0 0 1-.38-.38v-26.28c0-.18.16-.34.34-.34h14.76c.18 0 .32.13.34.3l.54 5.53c.02.21-.14.39-.35.39h-8.4a.35.35 0 0 0-.34.34v3.3c0 .18.15.34.34.34h6.12c.18 0 .33.15.33.33v5.53c0 .19-.16.34-.34.34h-6.12c-.18 0-.33.15-.33.33v3.73c0 .18.16.34.34.34h8.42c.2 0 .36.17.34.37l.01-.01ZM253.44 302.82c0 1.18-.2 3.45-1.52 5.33-1.56 2.22-4.23 3.35-7.94 3.35-3.08 0-5.49-.78-7.17-2.31-.73-.69-1.82-2.03-2.35-4.18-.05-.18.07-.36.25-.4l6.32-1.27c.17-.04.34.07.39.23.57 1.91 2.16 2.02 2.5 2.02 1.55 0 2.51-1.28 2.51-2.47 0-1.3-1.04-1.74-4.89-3.36l-.32-.14c-1.81-.73-6.63-2.67-6.63-7.76 0-5.43 4.9-8.36 9.5-8.36.88 0 2.49.11 4.15.78 1.17.49 3.67 1.86 4.17 4.72.03.17-.08.33-.24.38l-5.87 1.42a.343.343 0 0 1-.39-.18c-.28-.65-.84-1.2-2.04-1.2-1.11 0-2.27.74-2.27 2 0 1.16.73 1.49 5.49 3.63 4.57 2.05 6.34 4.22 6.34 7.77h.01ZM265.44 284.34v26.32c0 .18-.16.34-.35.34h-6.31c-.19 0-.35-.16-.35-.34v-26.32c0-.18.16-.34.35-.34h6.31c.19 0 .35.16.35.34ZM298.44 297.5c0 1.43-.2 2.84-.6 4.2-.46 1.57-1.17 3.05-2.11 4.38-1.28 1.8-2.96 3.29-4.86 4.31-2 1.07-4.16 1.61-6.42 1.61-7.72 0-14-6.51-14-14.5s6.28-14.5 14-14.5c2.27 0 4.43.54 6.42 1.61 1.67.9 3.17 2.16 4.37 3.67.17.21.13.51-.08.66l-4.49 3.39c-.14.1-.34.08-.46-.05-1.45-1.71-3.56-2.71-5.77-2.71-4.22 0-7.66 3.55-7.66 7.92s3.44 7.92 7.66 7.92c2.42 0 4.64-1.14 6.11-3.15.16-.22 0-.53-.27-.53h-6.54c-.19 0-.34-.16-.34-.35v-5.29c.01-.19.17-.35.35-.35h14.26c.18 0 .33.14.34.32.04.38.08 1 .08 1.42h.03l-.02.02ZM326.44 284.34v26.33c0 .18-.15.33-.34.33h-5.64a.35.35 0 0 1-.28-.14l-9.45-12.83c-.19-.26-.62-.13-.62.19l.13 12.44c0 .18-.15.33-.34.33h-6.13c-.19 0-.34-.15-.34-.33v-26.33c0-.18.15-.33.34-.33h5.59c.11 0 .22.05.28.15l9.49 13.81c.19.27.62.14.62-.18l-.13-13.45c0-.18.15-.33.34-.33h6.13c.19 0 .34.15.34.33l.01.01ZM352.55 311c-1.77 0-3.35-.35-4.71-1.03-1.37-.68-2.44-1.64-3.22-2.84-.78-1.21-1.17-2.58-1.17-4.12 0-1.03.22-2.02.67-2.95.45-.93 1.1-1.79 1.96-2.56.86-.78 1.89-1.43 3.1-1.98-.65-.68-1.17-1.32-1.58-1.92-.4-.6-.69-1.2-.86-1.79-.18-.59-.26-1.21-.26-1.87 0-1.29.35-2.46 1.06-3.5.71-1.04 1.67-1.87 2.88-2.49 1.2-.62 2.56-.93 4.06-.93 1.5 0 2.82.27 4.02.82 1.19.55 2.14 1.32 2.83 2.29.7.98 1.04 2.11 1.04 3.41 0 1.3-.44 2.57-1.32 3.66-.89 1.1-2.22 2.13-4 3.09l4.21 4.28c.72-.87 1.36-1.82 1.92-2.85.56-1.03 1.1-2.29 1.6-3.77l5.01 1.88c-.33.9-.78 1.87-1.33 2.9-.55 1.02-1.15 2.02-1.83 2.97-.67.96-1.35 1.8-2.02 2.53l5.81 6.21h-7.17l-2.44-2.53c-1.15.97-2.46 1.74-3.93 2.29-1.47.55-2.92.82-4.32.82h-.03l.02-.02Zm.51-5.06c.77 0 1.54-.15 2.29-.46.76-.31 1.44-.73 2.08-1.29l-5.05-5.2c-.99.39-1.76.93-2.31 1.6-.55.68-.82 1.4-.82 2.17 0 .95.35 1.71 1.05 2.29.71.58 1.62.88 2.76.88v.01Zm.9-12.65c1.05-.39 1.85-.88 2.38-1.45.53-.57.8-1.19.8-1.87 0-.74-.24-1.33-.74-1.78-.48-.45-1.13-.68-1.93-.68s-1.41.22-1.92.66c-.51.44-.76 1.02-.76 1.74 0 .52.18 1.06.53 1.61.35.55.89 1.14 1.62 1.76v.02l.02-.01ZM408.43 296.51c0 2.59-.74 5.12-2.13 7.3a13.507 13.507 0 0 1-5.51 4.9c-1.45.7-2.71 1.3-6.82 1.3h-8.19c-.19 0-.33-.15-.33-.33v-26.33c0-.18.16-.34.35-.34h7.97c3.55 0 5.24.52 6.55 1.09 4.94 2.14 8.13 7.01 8.13 12.41h-.02Zm-6.89-.02c-.05-7.02-7.4-7.29-9.08-7.26-.19 0-.35.16-.35.34v13.8c0 .19.16.35.35.35h.37c2.91 0 5.51-.81 6.8-2.1 1.24-1.25 1.9-3.02 1.9-5.13h.01ZM429.44 304.15l-.55 5.54c-.02.17-.17.3-.34.3h-14.73a.38.38 0 0 1-.38-.38v-26.28c0-.18.16-.34.34-.34h14.76c.18 0 .32.13.34.3l.54 5.53c.02.21-.15.39-.35.39h-8.41a.35.35 0 0 0-.34.34v3.3c0 .18.15.34.34.34h6.12c.18 0 .33.15.33.33v5.53c0 .19-.16.34-.34.34h-6.12c-.18 0-.33.15-.33.33v3.73c0 .18.16.34.34.34h8.42c.2 0 .36.17.34.37l.02-.01ZM459.44 283.43l-8.96 26.35c-.05.13-.17.22-.31.22h-6.42c-.14 0-.27-.09-.31-.22l-8.96-26.35c-.07-.21.08-.43.31-.43h7.49c.15 0 .28.1.31.25l4.05 15.43c.08.32.55.32.64 0l4.05-15.43c.04-.15.17-.25.31-.25h7.49c.22 0 .38.22.31.43ZM480.44 304.15l-.55 5.54c-.02.17-.17.3-.34.3h-14.73a.38.38 0 0 1-.38-.38v-26.28c0-.18.16-.34.34-.34h14.76c.18 0 .32.13.34.3l.54 5.53c.02.21-.15.39-.35.39h-8.41a.35.35 0 0 0-.34.34v3.3c0 .18.15.34.34.34h6.12c.18 0 .33.15.33.33v5.53c0 .19-.16.34-.34.34h-6.12c-.18 0-.33.15-.33.33v3.73c0 .18.16.34.34.34h8.42c.2 0 .36.17.34.37l.02-.01ZM501.43 304.14l-.59 5.57c-.02.17-.16.29-.32.29h-14.74c-.18 0-.33-.15-.33-.33v-26.34c0-.18.15-.33.33-.33h6.26c.18 0 .33.15.33.33v20.12c0 .18.15.33.33.33h8.42c.19 0 .35.17.32.36h-.01ZM534.44 296.5c0 7.99-6.28 14.5-14 14.5s-14-6.51-14-14.5 6.28-14.5 14-14.5 14 6.51 14 14.5Zm-6.34 0c0-4.37-3.44-7.92-7.66-7.92-4.22 0-7.66 3.55-7.66 7.92s3.44 7.92 7.66 7.92c4.22 0 7.66-3.55 7.66-7.92ZM559.44 292.15c0 2.79-1.12 5.64-2.8 7.1-1.77 1.51-3.52 2.34-7.74 2.34h-2.21c-.18 0-.33.15-.33.33v7.75c0 .18-.15.33-.32.33h-6.26c-.18 0-.33-.15-.33-.33v-26.34c0-.18.15-.33.33-.33h8.38c4.84 0 6.72.75 8.16 1.97 1.99 1.68 3.13 4.3 3.13 7.18h-.01Zm-6.62.11c0-1.32-.52-2.18-1.61-2.65-.91-.39-2.01-.39-2.74-.39h-1.78c-.18 0-.33.15-.33.33v5.51c0 .18.15.33.33.33h2.04c.63 0 1.69 0 2.56-.4 1.27-.57 1.54-1.8 1.54-2.73h-.01ZM595.1 309.99h-6.06c-.17 0-.32-.13-.33-.29l-1.28-13.67c-.04-.35-.53-.4-.64-.07l-4.47 13.8c-.05.14-.17.23-.32.23h-4.14c-.14 0-.27-.09-.32-.23l-4.47-13.8c-.11-.34-.61-.28-.64.07l-1.27 13.67c-.02.17-.16.29-.33.29h-6.06c-.2 0-.35-.17-.33-.37l3.43-26.34c.02-.17.16-.28.33-.28h7c.15 0 .27.09.32.23l4.16 13.36c.09.31.54.3.63 0l4.02-13.35c.04-.14.17-.23.32-.23h7.05c.17 0 .31.12.33.28l3.43 26.34c.03.19-.13.37-.33.37h-.01l-.02-.01ZM617.44 304.15l-.59 5.54c-.02.17-.18.3-.36.3h-15.65a.39.39 0 0 1-.4-.38v-26.28c0-.18.17-.34.36-.34h15.69c.19 0 .34.13.36.3l.58 5.53c.02.21-.16.39-.37.39h-8.93c-.2 0-.36.16-.36.34v3.3c0 .18.16.34.36.34h6.5c.2 0 .35.15.35.33v5.53c0 .19-.17.34-.36.34h-6.5c-.2 0-.35.15-.35.33v3.73c0 .18.17.34.36.34h8.95c.21 0 .38.17.36.37v-.01ZM644.44 283.34v26.33c0 .18-.15.33-.33.33h-5.39c-.11 0-.2-.05-.26-.14l-9.04-12.83c-.18-.26-.59-.13-.59.19l.13 12.44c0 .18-.15.33-.33.33h-5.86c-.18 0-.33-.15-.33-.33v-26.33c0-.18.15-.33.33-.33h5.35c.11 0 .21.05.27.15l9.08 13.81c.18.27.59.14.59-.18l-.13-13.45c0-.18.15-.33.33-.33h5.86c.18 0 .33.15.33.33l-.01.01ZM667.44 283.33v5.56c0 .18-.15.33-.33.33h-4.85c-.18 0-.33.15-.33.33v20.12c0 .18-.15.33-.33.33h-6.27c-.19 0-.33-.15-.33-.33v-20.12c0-.18-.15-.33-.33-.33h-4.88c-.18 0-.33-.15-.33-.33v-5.56c0-.18.15-.33.33-.33h17.32c.18 0 .33.15.33.33Z"/></svg>